{"title":"Tinker Bell and the Great Fairy Rescue 2010 DVDrip Dutch Klam","uid":6531641,"size":1219401968,"categoryP":"video","categoryS":"movies","magnet":"?xt=urn:btih:3b4fbf6ee241f61c80a6a17c15b23f26fc21f774&amp;dn=Tinker+Bell+and+the+Great+Fairy+Rescue+2010+DVDrip+Dutch+Klam&amp;tr=udp%3A%2F%2Ftracker.openbittorrent.com%3A80&amp;tr=udp%3A%2F%2Fopen.demonii.com%3A1337&amp;tr=udp%3A%2F%2Ftracker.coppersurfer.tk%3A6969&amp;tr=udp%3A%2F%2Fexodus.desync.com%3A6969","seeders":1,"leechers":0,"uploader":"Klambake","files":-1,"time":1310373557,"description":"Dutch spoken, Nederlands gesproken\n\nTijdens een zomer bezoek aan het vaste land, wordt Tinker Bell per ongeluk ontdekt en gevangen genomen door een klein meisje. De andere elfjes, geleid door Vidia, zetten een reddingsmissie op door een zware zomerstorm om Tinker Bell te bevrijden. Tinker Bell ontwikkelt echter een speciale band met het eenzame meisje en is vastbesloten om de relatie tussen haar en haar vader te verbeteren. Maar als Tink hierdoor haar redders wegstuurt, om haar nieuwe vriend te helpen; riskeert ze hiermee haar eigen veiligheid en de toekomst van alle elfjes.\n \nTinker Bell must team up with a rival fairy to keep their existence a secret from humans.\n\n------------------ Dutch Friends ------------------\nYou can find my Friends at: http://www.Film-Test.nl \n------ They got my dutchs subs ---- and more ------\n\nGeneral:\n\nComplete name                    : Tinker Bell and the Great Fairy Rescue\\Tinker Bell and the Great Fairy Rescue.avi\nFormat                           : AVI\nFormat/Info                      : Audio Video Interleave\nFile size                        : 1.14 GiB\nDuration                         : 1h 13mn\nOverall bit rate                 : 2 217 Kbps\n\nVideo:\n\nFormat                           : MPEG-4 Visual\nFormat profile                   : Simple@L3\nFormat settings, BVOP            : No\nFormat settings, QPel            : No\nFormat settings, GMC             : No warppoints\nFormat settings, Matrix          : Default (H.263)\nCodec ID                         : XVID\nCodec ID/Hint                    : XviD\nDuration                         : 1h 13mn\nBit rate                         : 1 823 Kbps\nWidth                            : 652 pixels\nHeight                           : 352 pixels\nDisplay aspect ratio             : 1.852\nFrame rate                       : 25.000 fps\nColor space                      : YUV\nChroma subsampling               : 4:2:0\nBit depth                        : 8 bits\nScan type                        : Progressive\nBits/(Pixel*Frame)               : 0.318\nStream size                      : 956 MiB (82%)\nWriting library                  : XviD 1.1.2 (UTC 2006-11-01)\n\nAudio:\n\nFormat                           : AC-3\nFormat/Info                      : Audio Coding 3\nMode extension                   : CM (complete main)\nCodec ID                         : 2000\nDuration                         : 1h 13mn\nBit rate mode                    : Constant\nBit rate                         : 384 Kbps\nChannel(s)                       : 6 channels\nChannel positions                : Front: L C R, Side: L R, LFE\nSampling rate                    : 48.0 KHz\nBit depth                        : 16 bits\nStream size                      : 201 MiB (17%)\nAlignment                        : Aligned on interleaves\nInterleave, duration             : 32 ms (0.80 video frame)\nInterleave, preload duration     : 800 ms\n\n","torrent":{"xt":"urn:btih:3b4fbf6ee241f61c80a6a17c15b23f26fc21f774","amp;dn":"Tinker+Bell+and+the+Great+Fairy+Rescue+2010+DVDrip+Dutch+Klam","amp;tr":["udp%3A%2F%2Ftracker.openbittorrent.com%3A80","udp%3A%2F%2Fopen.demonii.com%3A1337","udp%3A%2F%2Ftracker.coppersurfer.tk%3A6969","udp%3A%2F%2Fexodus.desync.com%3A6969"],"infoHash":"3b4fbf6ee241f61c80a6a17c15b23f26fc21f774","infoHashBuffer":{"type":"Buffer","data":[59,79,191,110,226,65,246,28,128,166,161,124,21,178,63,38,252,33,247,116]},"announce":[],"urlList":[]}}